# xmcd
#
# Track frame offsets: 
#        150
#        21275
#        38741
#        55410
#        71798
#        89752
#        104521
#        121320
#        135501
#        157370
#        174658
#        190718
#        210449
#
# Disc length: 3125 seconds
#
# Revision: 1
# Processed by: cddbd v1.5.1PL2 Copyright (c) Steve Scherf et al.
# Submitted via: ExactAudioCopy v0.95b2
#
DISCID=bf0c330d
DTITLE=Unearth - Our Days Of Eulogy
DYEAR=2005
DGENRE=Hardcore
TTITLE0=My Heart Bleeds No Longer (Live)
TTITLE1=Fuel The Fire (Live)
TTITLE2=Only The People (Live)
TTITLE3=Internal War (Live)
TTITLE4=One Step Away (Live)
TTITLE5=Endless
TTITLE6=Internal War
TTITLE7=The Charm
TTITLE8=My Desire
TTITLE9=Shattered By The Sun
TTITLE10=Call To Judgement
TTITLE11=Convictions
TTITLE12=Lefty
EXTD=
EXTT0=
EXTT1=
EXTT2=
EXTT3=
EXTT4=
EXTT5=
EXTT6=
EXTT7=
EXTT8=
EXTT9=
EXTT10=
EXTT11=
EXTT12=
PLAYORDER=
